<svg width="81" height="13" viewBox="0 0 81 13" fill="none" xmlns="http://www.w3.org/2000/svg">
<path d="M0.545987 12.5183V3.79104H2.85281V5.33081H2.95508C3.1369 4.81566 3.43993 4.41225 3.86417 4.12058C4.2922 3.82513 4.79978 3.6774 5.3869 3.6774C5.98538 3.6774 6.49485 3.82702 6.91531 4.12626C7.33576 4.42172 7.61606 4.82323 7.75622 5.33081H7.84712C8.02515 4.83081 8.34712 4.43119 8.81303 4.13195C9.28273 3.82892 9.83765 3.6774 10.4778 3.6774C11.2922 3.6774 11.9532 3.93687 12.4608 4.45581C12.9721 4.97096 13.2278 5.70202 13.2278 6.64899V12.5183H10.813V7.12627C10.813 6.64142 10.6842 6.27778 10.4267 6.03536C10.1691 5.79293 9.84712 5.67172 9.46076 5.67172C9.02137 5.67172 8.67856 5.81187 8.43235 6.09217C8.18614 6.37248 8.06303 6.73801 8.06303 7.18877V12.5183H5.71644V7.07513C5.71644 6.6471 5.59334 6.30619 5.34712 6.0524C5.1047 5.79861 4.78462 5.67172 4.3869 5.67172C3.98538 5.67172 3.64826 5.81945 3.37553 6.1149C3.10281 6.40657 2.96644 6.79483 2.96644 7.27967V12.5183H0.545987ZM19.0829 12.6888C18.2003 12.6888 17.4371 12.5013 16.7931 12.1263C16.153 11.7475 15.6587 11.221 15.3102 10.5467C14.9617 9.86869 14.7875 9.0827 14.7875 8.18877C14.7875 7.28725 14.9617 6.49937 15.3102 5.82513C15.6587 5.1471 16.153 4.62058 16.7931 4.24558C17.4371 3.8668 18.2003 3.6774 19.0829 3.6774C19.9655 3.6774 20.7269 3.8668 21.367 4.24558C22.0109 4.62058 22.5072 5.1471 22.8556 5.82513C23.2041 6.49937 23.3784 7.28725 23.3784 8.18877C23.3784 9.0827 23.2041 9.86869 22.8556 10.5467C22.5072 11.221 22.0109 11.7475 21.367 12.1263C20.7269 12.5013 19.9655 12.6888 19.0829 12.6888ZM19.0943 10.8138C19.6928 10.8138 20.1454 10.5638 20.4522 10.0638C20.7628 9.56377 20.9181 8.93308 20.9181 8.17172C20.9181 7.41036 20.7628 6.77967 20.4522 6.27967C20.1454 5.77589 19.6928 5.52399 19.0943 5.52399C18.4844 5.52399 18.0242 5.77589 17.7136 6.27967C17.403 6.77967 17.2477 7.41036 17.2477 8.17172C17.2477 8.93308 17.403 9.56377 17.7136 10.0638C18.0242 10.5638 18.4844 10.8138 19.0943 10.8138ZM28.1681 12.6604C27.5053 12.6604 26.9068 12.4899 26.3727 12.149C25.8386 11.8043 25.4144 11.2986 25.1 10.6319C24.7856 9.96149 24.6284 9.13952 24.6284 8.16604C24.6284 7.16604 24.7894 6.3346 25.1113 5.67172C25.4371 5.00505 25.867 4.50695 26.4011 4.1774C26.939 3.84407 27.5261 3.6774 28.1625 3.6774C28.6511 3.6774 29.0583 3.76073 29.3841 3.9274C29.7136 4.09028 29.9788 4.29293 30.1795 4.53536C30.3841 4.77778 30.5394 5.01831 30.6454 5.25695H30.7193V0.881947H33.1341V12.5183H30.7477V11.1206H30.6454C30.5356 11.363 30.3765 11.6035 30.1681 11.8422C29.9598 12.077 29.6909 12.2721 29.3613 12.4274C29.0356 12.5827 28.6378 12.6604 28.1681 12.6604ZM28.9352 10.7342C29.5185 10.7342 29.9693 10.4994 30.2875 10.0297C30.6094 9.55619 30.7704 8.93119 30.7704 8.15467C30.7704 7.37437 30.6113 6.75505 30.2931 6.29672C29.975 5.8346 29.5223 5.60354 28.9352 5.60354C28.3367 5.60354 27.8803 5.84028 27.5659 6.31377C27.2553 6.78346 27.1 7.3971 27.1 8.15467C27.1 8.91604 27.2572 9.53725 27.5716 10.0183C27.8859 10.4956 28.3405 10.7342 28.9352 10.7342ZM37.6127 12.6831C36.7794 12.6831 36.0881 12.4653 35.5389 12.0297C34.9896 11.5941 34.715 10.9444 34.715 10.0808C34.715 9.4293 34.8684 8.91793 35.1752 8.54672C35.4821 8.17551 35.8836 7.90467 36.3798 7.73422C36.8798 7.55998 37.4177 7.44634 37.9934 7.39331C38.751 7.31755 39.2927 7.23801 39.6184 7.15467C39.9442 7.07134 40.1071 6.88952 40.1071 6.60922V6.57513C40.1071 6.21528 39.9934 5.93687 39.7662 5.7399C39.5427 5.54293 39.2245 5.44445 38.8116 5.44445C38.376 5.44445 38.0294 5.53914 37.7718 5.72854C37.5143 5.91793 37.3438 6.15846 37.2605 6.45013L35.0218 6.26831C35.1885 5.47286 35.6014 4.84217 36.2605 4.37626C36.9234 3.91036 37.7775 3.6774 38.823 3.6774C39.4707 3.6774 40.0768 3.77967 40.6412 3.98422C41.2056 4.18876 41.6601 4.50884 42.0048 4.94445C42.3533 5.37626 42.5275 5.93876 42.5275 6.63195V12.5183H40.2321V11.3081H40.1639C39.9518 11.7134 39.6336 12.0448 39.2093 12.3024C38.7889 12.5562 38.2567 12.6831 37.6127 12.6831ZM38.3059 11.0126C38.8362 11.0126 39.2718 10.8592 39.6127 10.5524C39.9537 10.2418 40.1241 9.85733 40.1241 9.39899V8.47286C40.0294 8.53725 39.8817 8.59407 39.6809 8.64331C39.484 8.69255 39.2718 8.73611 39.0446 8.77399C38.8211 8.80808 38.6203 8.83839 38.4423 8.8649C38.0181 8.92551 37.6752 9.04483 37.4139 9.22286C37.1563 9.40089 37.0275 9.66036 37.0275 10.0013C37.0275 10.3346 37.1468 10.5865 37.3855 10.7569C37.6279 10.9274 37.9347 11.0126 38.3059 11.0126ZM46.8258 7.47286V12.5183H44.4054V3.79104H46.7122V5.33081H46.8145C47.0114 4.82323 47.3353 4.42172 47.786 4.12626C48.2406 3.82702 48.7917 3.6774 49.4395 3.6774C50.3485 3.6774 51.0777 3.97096 51.627 4.55808C52.1762 5.14142 52.4508 5.94255 52.4508 6.96149V12.5183H50.0304V7.39331C50.0342 6.85922 49.8978 6.44255 49.6213 6.14331C49.3448 5.84028 48.9641 5.68877 48.4792 5.68877C47.9906 5.68877 47.5929 5.84596 47.286 6.16036C46.983 6.47096 46.8296 6.90846 46.8258 7.47286ZM56.8471 12.6831C56.0138 12.6831 55.3225 12.4653 54.7733 12.0297C54.224 11.5941 53.9494 10.9444 53.9494 10.0808C53.9494 9.4293 54.1028 8.91793 54.4096 8.54672C54.7164 8.17551 55.118 7.90467 55.6142 7.73422C56.1142 7.55998 56.652 7.44634 57.2278 7.39331C57.9854 7.31755 58.527 7.23801 58.8528 7.15467C59.1786 7.07134 59.3414 6.88952 59.3414 6.60922V6.57513C59.3414 6.21528 59.2278 5.93687 59.0005 5.7399C58.777 5.54293 58.4589 5.44445 58.046 5.44445C57.6104 5.44445 57.2638 5.53914 57.0062 5.72854C56.7486 5.91793 56.5782 6.15846 56.4949 6.45013L54.2562 6.26831C54.4229 5.47286 54.8358 4.84217 55.4949 4.37626C56.1577 3.91036 57.0119 3.6774 58.0574 3.6774C58.7051 3.6774 59.3111 3.77967 59.8755 3.98422C60.4399 4.18876 60.8945 4.50884 61.2392 4.94445C61.5877 5.37626 61.7619 5.93876 61.7619 6.63195V12.5183H59.4664V11.3081H59.3983C59.1861 11.7134 58.868 12.0448 58.4437 12.3024C58.0233 12.5562 57.4911 12.6831 56.8471 12.6831ZM57.5403 11.0126C58.0706 11.0126 58.5062 10.8592 58.8471 10.5524C59.188 10.2418 59.3585 9.85733 59.3585 9.39899V8.47286C59.2638 8.53725 59.1161 8.59407 58.9153 8.64331C58.7183 8.69255 58.5062 8.73611 58.2789 8.77399C58.0555 8.80808 57.8547 8.83839 57.6767 8.8649C57.2524 8.92551 56.9096 9.04483 56.6483 9.22286C56.3907 9.40089 56.2619 9.66036 56.2619 10.0013C56.2619 10.3346 56.3812 10.5865 56.6199 10.7569C56.8623 10.9274 57.1691 11.0126 57.5403 11.0126ZM65.0545 12.666C64.6795 12.666 64.3575 12.5335 64.0886 12.2683C63.8197 12.0032 63.6871 11.6812 63.6909 11.3024C63.6871 10.9312 63.8197 10.613 64.0886 10.3479C64.3575 10.0827 64.6795 9.95013 65.0545 9.95013C65.4181 9.95013 65.7344 10.0827 66.0034 10.3479C66.2761 10.613 66.4144 10.9312 66.4181 11.3024C66.4144 11.6812 66.2761 12.0032 66.0034 12.2683C65.7344 12.5335 65.4181 12.666 65.0545 12.666ZM68.4054 12.5183V3.79104H70.8258V12.5183H68.4054ZM69.6213 2.66604C69.2652 2.66604 68.9584 2.54672 68.7008 2.30808C68.4432 2.06566 68.3145 1.77589 68.3145 1.43876C68.3145 1.10164 68.4432 0.813765 68.7008 0.575129C68.9584 0.336492 69.2652 0.217174 69.6213 0.217174C69.9811 0.217174 70.2898 0.336492 70.5474 0.575129C70.805 0.813765 70.9338 1.10164 70.9338 1.43876C70.9338 1.77589 70.805 2.06566 70.5474 2.30808C70.2898 2.54672 69.9811 2.66604 69.6213 2.66604ZM75.9806 12.6604C75.3178 12.6604 74.7193 12.4899 74.1852 12.149C73.6511 11.8043 73.2269 11.2986 72.9125 10.6319C72.5981 9.96149 72.4409 9.13952 72.4409 8.16604C72.4409 7.16604 72.6019 6.3346 72.9238 5.67172C73.2496 5.00505 73.6795 4.50695 74.2136 4.1774C74.7515 3.84407 75.3386 3.6774 75.975 3.6774C76.4636 3.6774 76.8708 3.76073 77.1966 3.9274C77.5261 4.09028 77.7913 4.29293 77.992 4.53536C78.1966 4.77778 78.3519 5.01831 78.4579 5.25695H78.5318V0.881947H80.9466V12.5183H78.5602V11.1206H78.4579C78.3481 11.363 78.189 11.6035 77.9806 11.8422C77.7723 12.077 77.5034 12.2721 77.1738 12.4274C76.8481 12.5827 76.4503 12.6604 75.9806 12.6604ZM76.7477 10.7342C77.331 10.7342 77.7818 10.4994 78.1 10.0297C78.4219 9.55619 78.5829 8.93119 78.5829 8.15467C78.5829 7.37437 78.4238 6.75505 78.1056 6.29672C77.7875 5.8346 77.3348 5.60354 76.7477 5.60354C76.1492 5.60354 75.6928 5.84028 75.3784 6.31377C75.0678 6.78346 74.9125 7.3971 74.9125 8.15467C74.9125 8.91604 75.0697 9.53725 75.3841 10.0183C75.6984 10.4956 76.153 10.7342 76.7477 10.7342Z" fill="black"/>
</svg>
